<svg width="1366" height="275" viewBox="0 0 1366 275" fill="none" xmlns="http://www.w3.org/2000/svg">
	<path
		d="M348.842 225.82C358.842 225.82 363.742 231.52 363.742 238.42C363.742 243.42 361.042 248.72 354.042 250.42L364.442 267.82H356.242L346.542 251.02H341.242V267.82H334.342V225.82H348.842ZM348.842 231.52H341.242V245.52H348.842C354.242 245.52 356.642 242.52 356.642 238.42C356.642 234.22 354.242 231.52 348.842 231.52Z"
		fill="black" />
	<path
		d="M386.842 268.42C377.342 268.42 370.242 261.62 370.242 251.22C370.242 240.82 377.042 234.02 386.842 234.02C396.342 234.02 403.042 240.62 403.042 250.42C403.042 251.52 402.942 252.62 402.842 253.82H377.442C377.942 259.32 381.842 262.62 386.942 262.62C391.142 262.62 393.542 260.52 394.842 257.92H402.242C400.242 263.72 395.042 268.42 386.842 268.42ZM377.442 248.22H395.842C395.742 243.12 391.642 239.82 386.542 239.82C381.942 239.82 378.142 242.92 377.442 248.22Z"
		fill="black" />
	<path
		d="M421.941 268.42C413.941 268.42 408.341 263.72 408.041 257.62H415.141C415.341 260.32 417.941 262.62 421.741 262.62C425.741 262.62 427.841 260.92 427.841 258.62C427.841 252.12 408.541 255.82 408.541 243.62C408.541 238.32 413.541 234.02 421.341 234.02C428.941 234.02 433.841 238.02 434.241 244.72H427.341C427.141 241.82 424.841 239.82 421.141 239.82C417.441 239.82 415.541 241.32 415.541 243.52C415.541 250.22 434.341 246.52 434.741 258.52C434.641 264.22 429.741 268.42 421.941 268.42Z"
		fill="black" />
	<path
		d="M456.442 268.42C446.942 268.42 439.842 261.62 439.842 251.22C439.842 240.82 446.642 234.02 456.442 234.02C465.942 234.02 472.642 240.62 472.642 250.42C472.642 251.52 472.542 252.62 472.442 253.82H447.042C447.542 259.32 451.442 262.62 456.542 262.62C460.742 262.62 463.142 260.52 464.442 257.92H471.842C469.842 263.72 464.542 268.42 456.442 268.42ZM447.042 248.22H465.442C465.342 243.12 461.242 239.82 456.142 239.82C451.442 239.82 447.742 242.92 447.042 248.22Z"
		fill="black" />
	<path
		d="M492.841 234.02C498.441 234.02 502.341 236.72 504.341 239.42V234.52H511.241V267.82H504.341V262.82C502.241 265.62 498.241 268.32 492.641 268.32C484.041 268.32 477.041 261.22 477.041 251.02C477.041 240.82 484.041 234.02 492.841 234.02ZM494.241 240.02C489.141 240.02 484.141 243.92 484.141 251.12C484.141 258.32 489.141 262.52 494.241 262.52C499.441 262.52 504.341 258.52 504.341 251.32C504.341 244.02 499.441 240.02 494.241 240.02Z"
		fill="black" />
	<path
		d="M527.242 267.82H520.342V234.52H527.242V239.32C529.142 236.02 532.542 233.92 537.242 233.92V241.02H535.442C530.342 241.02 527.242 243.12 527.242 250.22V267.82Z"
		fill="black" />
	<path
		d="M557.542 234.02C565.742 234.02 571.042 238.02 572.842 245.12H565.442C564.342 241.92 561.642 239.82 557.542 239.82C551.942 239.82 548.342 243.92 548.342 251.22C548.342 258.52 552.042 262.62 557.542 262.62C561.642 262.62 564.142 260.82 565.442 257.32H572.842C570.942 263.82 565.642 268.42 557.542 268.42C548.042 268.42 541.242 261.62 541.242 251.22C541.242 240.82 548.042 234.02 557.542 234.02Z"
		fill="black" />
	<path
		d="M579.842 223.12H586.742V238.42C589.042 235.62 592.742 234.02 597.042 234.02C604.442 234.02 610.242 238.92 610.242 248.22V267.82H603.442V249.22C603.442 243.12 600.142 240.02 595.142 240.02C590.042 240.02 586.742 243.12 586.742 249.22V267.82H579.842V223.12Z"
		fill="black" />
	<path d="M643.441 219.42V274.62H636.541V219.42H643.441Z" fill="black" />
	<path
		d="M708.742 237.92H700.442C698.242 233.72 694.242 231.62 689.242 231.62C680.942 231.62 674.842 237.52 674.842 246.82C674.842 256.12 680.842 262.02 689.242 262.02C696.842 262.02 701.642 257.42 702.642 250.32H686.842V244.82H710.042V250.22C708.742 259.92 700.542 268.22 689.242 268.22C677.442 268.22 667.742 259.42 667.742 246.72C667.742 234.12 677.342 225.22 689.242 225.22C697.942 225.32 705.542 229.72 708.742 237.92Z"
		fill="black" />
	<path
		d="M723.642 267.82H716.742V234.52H723.642V239.32C725.542 236.02 728.942 233.92 733.642 233.92V241.02H731.842C726.742 241.02 723.642 243.12 723.642 250.22V267.82Z"
		fill="black" />
	<path
		d="M754.442 268.42C744.942 268.42 737.742 261.62 737.742 251.22C737.742 240.82 745.242 234.02 754.742 234.02C764.242 234.02 771.742 240.72 771.742 251.22C771.742 261.72 763.942 268.42 754.442 268.42ZM754.442 262.42C759.542 262.42 764.642 258.72 764.642 251.22C764.642 243.72 759.742 240.02 754.642 240.02C749.442 240.02 744.742 243.62 744.742 251.22C744.742 258.82 749.242 262.42 754.442 262.42Z"
		fill="black" />
	<path
		d="M774.643 234.52H781.643L788.543 261.32L795.643 234.52H802.843L809.643 261.12L816.543 234.52H823.343L813.043 267.82H805.743L799.043 243.22L792.343 267.82H785.043L774.643 234.52Z"
		fill="black" />
	<path
		d="M829.543 240.22H825.643V234.52H829.543V226.22H836.443V234.52H844.543V240.12H836.443V258.52C836.443 261.02 837.443 262.02 840.343 262.02H844.543V267.72H839.143C833.243 267.72 829.543 265.22 829.543 258.52V240.22Z"
		fill="black" />
	<path
		d="M850.941 223.12H857.841V238.42C860.141 235.62 863.841 234.02 868.141 234.02C875.541 234.02 881.341 238.92 881.341 248.22V267.82H874.541V249.22C874.541 243.12 871.241 240.02 866.241 240.02C861.141 240.02 857.841 243.12 857.841 249.22V267.82H850.941V223.12Z"
		fill="black" />
	<path d="M914.543 219.42V274.62H907.643V219.42H914.543Z" fill="black" />
	<path
		d="M966.443 259.32H948.843L945.843 267.92H938.643L953.643 225.82H961.643L976.643 267.92H969.343L966.443 259.32ZM957.643 234.12L950.743 253.62H964.443L957.643 234.12Z"
		fill="black" />
	<path
		d="M997.241 234.02C1005.44 234.02 1010.74 238.02 1012.54 245.12H1005.14C1004.04 241.92 1001.34 239.82 997.241 239.82C991.641 239.82 988.041 243.92 988.041 251.22C988.041 258.52 991.741 262.62 997.241 262.62C1001.34 262.62 1003.84 260.82 1005.14 257.32H1012.54C1010.64 263.82 1005.34 268.42 997.241 268.42C987.741 268.42 980.941 261.62 980.941 251.22C980.941 240.82 987.741 234.02 997.241 234.02Z"
		fill="black" />
	<path
		d="M1033.54 234.02C1041.74 234.02 1047.04 238.02 1048.84 245.12H1041.44C1040.34 241.92 1037.64 239.82 1033.54 239.82C1027.94 239.82 1024.34 243.92 1024.34 251.22C1024.34 258.52 1028.04 262.62 1033.54 262.62C1037.64 262.62 1040.14 260.82 1041.44 257.32H1048.84C1046.94 263.82 1041.64 268.42 1033.54 268.42C1024.04 268.42 1017.24 261.62 1017.24 251.22C1017.24 240.82 1023.94 234.02 1033.54 234.02Z"
		fill="black" />
	<path
		d="M1070.14 268.42C1060.64 268.42 1053.54 261.62 1053.54 251.22C1053.54 240.82 1060.34 234.02 1070.14 234.02C1079.64 234.02 1086.34 240.62 1086.34 250.42C1086.34 251.52 1086.24 252.62 1086.14 253.82H1060.74C1061.24 259.32 1065.14 262.62 1070.24 262.62C1074.44 262.62 1076.84 260.52 1078.14 257.92H1085.54C1083.54 263.72 1078.24 268.42 1070.14 268.42ZM1060.64 248.22H1079.04C1078.94 243.12 1074.84 239.82 1069.74 239.82C1065.14 239.82 1061.44 242.92 1060.64 248.22Z"
		fill="black" />
	<path d="M1093.04 223.12H1099.94V267.82H1093.04V223.12Z" fill="black" />
	<path
		d="M1123.34 268.42C1113.84 268.42 1106.74 261.62 1106.74 251.22C1106.74 240.82 1113.54 234.02 1123.34 234.02C1132.84 234.02 1139.54 240.62 1139.54 250.42C1139.54 251.52 1139.44 252.62 1139.34 253.82H1113.94C1114.44 259.32 1118.34 262.62 1123.44 262.62C1127.64 262.62 1130.04 260.52 1131.34 257.92H1138.74C1136.74 263.72 1131.54 268.42 1123.34 268.42ZM1113.94 248.22H1132.34C1132.24 243.12 1128.14 239.82 1123.04 239.82C1118.34 239.82 1114.64 242.92 1113.94 248.22Z"
		fill="black" />
	<path
		d="M1153.24 267.82H1146.34V234.52H1153.24V239.32C1155.14 236.02 1158.54 233.92 1163.24 233.92V241.02H1161.44C1156.34 241.02 1153.24 243.12 1153.24 250.22V267.82Z"
		fill="black" />
	<path
		d="M1182.94 234.02C1188.54 234.02 1192.44 236.72 1194.44 239.42V234.52H1201.44V267.82H1194.44V262.82C1192.34 265.62 1188.34 268.32 1182.74 268.32C1174.14 268.32 1167.14 261.22 1167.14 251.02C1167.24 240.82 1174.14 234.02 1182.94 234.02ZM1184.34 240.02C1179.24 240.02 1174.24 243.92 1174.24 251.12C1174.24 258.32 1179.24 262.52 1184.34 262.52C1189.54 262.52 1194.44 258.52 1194.44 251.32C1194.44 244.02 1189.54 240.02 1184.34 240.02Z"
		fill="black" />
	<path
		d="M1211.54 240.22H1207.64V234.52H1211.54V226.22H1218.44V234.52H1226.54V240.12H1218.44V258.52C1218.44 261.02 1219.44 262.02 1222.34 262.02H1226.54V267.72H1221.14C1215.24 267.72 1211.54 265.22 1211.54 258.52V240.22Z"
		fill="black" />
	<path
		d="M1247.34 268.42C1237.84 268.42 1230.74 261.62 1230.74 251.22C1230.74 240.82 1237.54 234.02 1247.34 234.02C1256.84 234.02 1263.54 240.62 1263.54 250.42C1263.54 251.52 1263.44 252.62 1263.34 253.82H1237.94C1238.44 259.32 1242.34 262.62 1247.44 262.62C1251.64 262.62 1254.04 260.52 1255.34 257.92H1262.74C1260.74 263.72 1255.44 268.42 1247.34 268.42ZM1237.84 248.22H1256.24C1256.14 243.12 1252.04 239.82 1246.94 239.82C1242.34 239.82 1238.64 242.92 1237.84 248.22Z"
		fill="black" />
	<path
		d="M378.041 151.62C378.041 159.42 376.041 166.32 372.041 172.32C368.041 178.32 362.341 183.02 354.841 186.42C347.341 189.72 338.541 191.42 328.441 191.42C320.041 191.42 312.941 190.82 307.241 189.62C301.541 188.42 295.541 186.42 289.441 183.52V153.32C295.941 156.62 302.741 159.22 309.741 161.12C316.741 163.02 323.241 163.92 329.141 163.92C334.241 163.92 337.941 163.02 340.341 161.32C342.741 159.62 343.841 157.32 343.841 154.62C343.841 152.92 343.341 151.42 342.441 150.12C341.441 148.82 339.941 147.52 337.841 146.22C335.741 144.92 330.141 142.22 321.041 138.12C312.741 134.42 306.641 130.82 302.441 127.32C298.341 123.82 295.241 119.82 293.241 115.32C291.241 110.82 290.241 105.42 290.241 99.2195C290.241 87.6195 294.441 78.6195 302.941 72.2195C311.441 65.7195 323.041 62.5195 337.941 62.5195C351.041 62.5195 364.341 65.5195 378.041 71.5195L367.541 97.7195C355.741 92.3195 345.541 89.6195 336.941 89.6195C332.541 89.6195 329.241 90.4196 327.241 91.9196C325.241 93.4196 324.241 95.4195 324.241 97.7195C324.241 100.22 325.541 102.42 328.141 104.32C330.741 106.22 337.641 109.82 349.041 114.92C359.941 119.82 367.541 125.02 371.741 130.62C375.941 136.12 378.041 143.12 378.041 151.62Z"
		fill="#0264C9" />
	<path
		d="M442.941 191.42C426.641 191.42 413.941 187.12 404.941 178.52C395.941 169.92 391.441 157.62 391.441 141.72C391.441 125.32 395.641 112.72 403.941 103.92C412.341 95.1197 424.241 90.7197 439.741 90.7197C454.541 90.7197 465.941 94.5197 473.941 102.22C481.941 109.82 486.041 120.82 486.041 135.22V150.12H425.541C425.741 155.52 427.741 159.82 431.541 162.92C435.341 166.02 440.441 167.52 446.941 167.52C452.841 167.52 458.341 166.92 463.341 165.82C468.341 164.72 473.741 162.82 479.541 160.12V184.22C474.241 186.92 468.741 188.82 463.141 189.82C457.541 190.92 450.741 191.42 442.941 191.42ZM440.941 113.52C436.941 113.52 433.641 114.72 430.941 117.22C428.241 119.72 426.641 123.62 426.241 128.92H455.341C455.241 124.22 453.841 120.52 451.341 117.72C448.741 114.92 445.241 113.52 440.941 113.52Z"
		fill="#0264C9" />
	<path d="M538.941 189.719H505.141V56.1191H538.941V189.719Z" fill="#0264C9" />
	<path d="M596.241 189.719H562.441V56.1191H596.241V189.719Z" fill="#0264C9" />
	<path
		d="M667.041 191.42C650.741 191.42 638.041 187.12 629.041 178.52C620.041 169.92 615.541 157.62 615.541 141.72C615.541 125.32 619.741 112.72 628.041 103.92C636.441 95.1197 648.341 90.7197 663.841 90.7197C678.641 90.7197 690.041 94.5197 698.041 102.22C706.041 109.82 710.141 120.82 710.141 135.22V150.12H649.641C649.841 155.52 651.841 159.82 655.641 162.92C659.441 166.02 664.541 167.52 671.041 167.52C676.941 167.52 682.441 166.92 687.441 165.82C692.441 164.72 697.841 162.82 703.641 160.12V184.22C698.341 186.92 692.841 188.82 687.241 189.82C681.641 190.92 674.841 191.42 667.041 191.42ZM665.041 113.52C661.041 113.52 657.741 114.72 655.041 117.22C652.341 119.72 650.741 123.62 650.341 128.92H679.441C679.341 124.22 677.941 120.52 675.441 117.72C672.841 114.92 669.341 113.52 665.041 113.52Z"
		fill="#0264C9" />
	<path
		d="M788.442 90.7197C791.342 90.7197 794.142 90.9197 796.842 91.4197L798.742 91.7197L795.742 123.42C792.942 122.72 789.142 122.42 784.242 122.42C776.842 122.42 771.542 124.12 768.142 127.42C764.842 130.72 763.142 135.62 763.142 141.92V189.72H729.342V92.4197H754.542L759.842 107.92H761.442C764.242 102.72 768.242 98.6197 773.242 95.4197C778.242 92.3197 783.342 90.7197 788.442 90.7197Z"
		fill="#0264C9" />
	<path
		d="M888.341 90.2189C880.241 90.2189 873.841 93.5189 869.341 100.119C864.741 106.719 862.541 115.819 862.541 127.419C862.541 151.619 871.841 163.619 890.341 163.619C895.941 163.619 901.341 162.819 906.641 161.319C911.841 159.819 917.141 157.919 922.441 155.719V184.419C911.841 189.019 899.941 191.419 886.641 191.419C867.541 191.419 852.941 185.919 842.741 174.919C832.541 163.919 827.441 148.019 827.441 127.319C827.441 114.319 829.941 102.919 834.841 93.0189C839.741 83.2189 846.841 75.6189 856.141 70.3189C865.441 65.0189 876.241 62.4189 888.841 62.4189C902.541 62.4189 915.541 65.3189 928.041 71.2189L917.541 97.9189C912.841 95.7189 908.241 93.9189 903.541 92.4189C898.741 90.9189 893.741 90.2189 888.341 90.2189Z"
		fill="#0264C9" />
	<path
		d="M944.342 68.2194C944.342 63.2194 945.742 59.4193 948.542 57.0193C951.342 54.5193 955.942 53.3193 962.242 53.3193C968.542 53.3193 973.142 54.6193 976.042 57.1193C978.942 59.6193 980.342 63.3193 980.342 68.3193C980.342 78.1193 974.342 83.1193 962.242 83.1193C950.242 83.0193 944.342 78.0194 944.342 68.2194ZM979.042 189.719H945.242V92.4194H979.042V189.719Z"
		fill="#0264C9" />
	<path
		d="M1061.84 90.7197C1064.74 90.7197 1067.54 90.9197 1070.24 91.4197L1072.14 91.7197L1069.14 123.42C1066.34 122.72 1062.54 122.42 1057.64 122.42C1050.24 122.42 1044.94 124.12 1041.54 127.42C1038.24 130.72 1036.54 135.62 1036.54 141.92V189.72H1002.74V92.4197H1027.94L1033.24 107.92H1034.84C1037.64 102.72 1041.64 98.6197 1046.64 95.4197C1051.64 92.3197 1056.64 90.7197 1061.84 90.7197Z"
		fill="#0264C9" />
	<path
		d="M1130.44 191.42C1114.44 191.42 1102.24 187.12 1093.94 178.52C1085.64 169.92 1081.54 157.62 1081.54 141.52C1081.54 125.42 1086.04 112.92 1094.94 104.02C1103.84 95.1197 1116.64 90.7197 1133.14 90.7197C1144.54 90.7197 1155.24 93.2197 1165.24 98.1197L1155.24 122.92C1151.14 121.12 1147.34 119.72 1143.94 118.72C1140.44 117.62 1136.84 117.12 1133.14 117.12C1127.64 117.12 1123.44 119.22 1120.44 123.52C1117.44 127.72 1115.94 133.72 1115.94 141.42C1115.94 157.02 1121.74 164.82 1133.34 164.82C1143.24 164.82 1152.74 161.92 1161.94 156.22V182.92C1153.14 188.52 1142.64 191.42 1130.44 191.42Z"
		fill="#0264C9" />
	<path d="M1215.14 189.719H1181.34V56.1191H1215.14V189.719Z" fill="#0264C9" />
	<path
		d="M1285.94 191.42C1269.64 191.42 1256.94 187.12 1247.94 178.52C1238.94 169.92 1234.44 157.62 1234.44 141.72C1234.44 125.32 1238.64 112.72 1246.94 103.92C1255.34 95.1197 1267.24 90.7197 1282.74 90.7197C1297.54 90.7197 1308.94 94.5197 1316.94 102.22C1324.94 109.82 1329.04 120.82 1329.04 135.22V150.12H1268.54C1268.74 155.52 1270.74 159.82 1274.54 162.92C1278.34 166.02 1283.44 167.52 1289.94 167.52C1295.84 167.52 1301.34 166.92 1306.34 165.82C1311.34 164.72 1316.74 162.82 1322.54 160.12V184.22C1317.24 186.92 1311.74 188.82 1306.14 189.82C1300.54 190.92 1293.84 191.42 1285.94 191.42ZM1283.94 113.52C1279.94 113.52 1276.64 114.72 1273.94 117.22C1271.24 119.72 1269.64 123.62 1269.24 128.92H1298.34C1298.24 124.22 1296.84 120.52 1294.34 117.72C1291.74 114.92 1288.24 113.52 1283.94 113.52Z"
		fill="#0264C9" />
	<path
		d="M1329.84 80.5197C1347.74 80.5197 1362.24 66.0137 1362.24 48.1197C1362.24 30.2257 1347.74 15.7197 1329.84 15.7197C1311.95 15.7197 1297.44 30.2257 1297.44 48.1197C1297.44 66.0137 1311.95 80.5197 1329.84 80.5197Z"
		stroke="#0264C9" stroke-width="7" stroke-miterlimit="10" />
	<path
		d="M1320.29 63.8789V31.7963H1331.13C1333.63 31.7963 1335.69 32.2245 1337.3 33.0808C1338.91 33.9268 1340.1 35.0912 1340.87 36.5742C1341.64 38.0572 1342.03 39.7438 1342.03 41.6341C1342.03 43.5244 1341.64 45.2006 1340.87 46.6627C1340.1 48.1248 1338.91 49.2736 1337.32 50.1091C1335.72 50.9341 1333.68 51.3466 1331.19 51.3466H1322.42V47.8376H1331.07C1332.78 47.8376 1334.16 47.587 1335.2 47.0857C1336.26 46.5844 1337.02 45.8742 1337.49 44.9552C1337.97 44.0257 1338.21 42.9187 1338.21 41.6341C1338.21 40.3496 1337.97 39.2269 1337.49 38.2661C1337.01 37.3053 1336.24 36.5638 1335.19 36.0416C1334.13 35.509 1332.74 35.2427 1331 35.2427H1324.17V63.8789H1320.29ZM1335.39 49.4668L1343.28 63.8789H1338.77L1331 49.4668H1335.39Z"
		fill="#0264C9" />
	<path
		d="M27.3408 202.619C27.6408 203.119 27.8408 203.619 28.1408 204.119C27.7408 204.319 27.5408 204.019 27.4408 203.819C25.6408 201.319 23.6408 198.919 22.5408 196.019C21.9408 194.419 21.4408 192.719 20.7408 191.119C20.2408 190.019 19.1408 189.719 18.6408 188.719C12.8408 178.019 9.94078 166.519 7.54078 154.719C6.94078 151.719 6.44078 148.719 5.74078 145.819C5.74078 148.319 6.24078 150.719 6.64078 153.219C7.54078 158.419 8.94078 163.519 10.0408 168.719C10.2408 169.419 10.2408 170.219 10.3408 171.019C10.3408 171.219 10.3408 171.519 10.1408 171.619C9.94078 171.719 9.74078 171.519 9.54078 171.419C9.14078 171.019 8.94079 170.619 8.84079 170.119C6.54078 163.719 4.84078 157.119 4.54078 150.219C4.54078 150.119 4.54078 149.919 4.44078 149.819C3.64078 150.119 3.74078 150.819 3.74078 151.319C3.64078 155.219 4.14078 159.119 5.04078 162.919C7.04078 170.619 9.74078 178.019 12.9408 185.319C13.2408 185.919 13.4408 186.519 13.6408 187.219C13.7408 187.619 14.0408 188.019 13.6408 188.319C13.1408 188.519 12.9408 188.019 12.7408 187.719C11.6408 185.919 10.5408 184.019 9.84079 182.019C5.74079 169.919 2.54078 157.619 0.840781 145.019C0.440781 141.919 0.340781 138.819 0.140781 135.619C-0.259219 130.119 0.240782 124.719 1.04078 119.319C1.14078 118.819 1.24078 118.319 1.54078 117.719C1.54078 118.219 1.54078 118.719 1.54078 119.219C0.840782 125.319 1.34078 131.219 2.64078 137.219C3.34078 140.619 3.64078 144.219 4.24078 147.719C4.14078 145.619 3.94079 143.519 3.84079 141.419C3.64079 135.619 3.14078 129.819 3.54078 124.019C3.84078 120.119 3.94078 116.119 4.44078 112.219C5.74078 101.719 8.64078 91.8194 13.6408 82.5194C13.8408 82.2194 13.9408 81.7194 14.4408 81.6194C16.1408 81.2194 17.2408 79.9194 17.8408 78.5194C19.4408 75.1194 21.3408 71.7194 23.2408 68.4194C23.3408 68.3194 23.3408 68.2194 23.4408 68.1194C23.7408 67.7194 23.7408 67.4194 23.3408 67.1194C22.8408 66.7194 22.7408 67.2194 22.5408 67.5194C21.5408 68.7194 20.6408 70.0194 19.6408 71.2194C19.4408 71.5194 19.3408 71.9194 18.6408 71.9194C21.7408 63.8194 26.8408 57.1194 31.9408 50.3194C31.1408 50.1194 31.0408 50.6194 30.7408 50.8194C25.7408 55.4194 21.9408 61.0194 18.7408 67.0194C16.1408 71.8194 13.9408 76.7194 11.4408 81.5194C11.0408 82.3194 10.6408 83.9194 9.74078 83.6194C8.74078 83.2194 9.64078 81.8194 9.94078 81.0194C12.5408 73.8194 16.0408 67.0194 20.0408 60.6194C24.2408 53.9194 29.0408 47.6194 34.9408 42.3194C40.4408 37.4194 45.2408 31.7194 51.4408 27.5194C57.1408 23.6194 63.0408 20.2194 69.3408 17.4194C79.3408 13.0194 89.7408 9.91943 100.041 6.41943C102.641 5.51943 105.341 5.51943 108.041 5.41943C111.741 5.21943 115.541 5.01939 119.241 4.81939C120.041 4.81939 120.741 4.71938 121.341 4.11938C121.841 3.71938 122.441 3.5194 123.041 3.5194C127.641 3.2194 132.141 3.11943 136.741 3.41943C140.041 3.61943 143.341 3.7194 146.641 4.0194C152.941 4.61941 159.141 5.8194 165.241 7.5194C174.541 10.1194 183.441 13.7194 191.941 18.2194C195.141 19.9194 198.241 21.8194 201.141 23.9194C204.641 26.3194 208.041 29.0194 211.741 30.9194C215.541 32.8194 217.841 36.0194 220.641 38.8194C223.441 41.6194 226.041 44.5194 228.741 47.4194C228.841 47.6194 229.041 47.7194 229.341 47.7194C226.241 43.5194 222.741 39.5194 219.341 35.6194C221.041 36.5194 222.441 37.8194 223.841 39.0194C230.941 45.5194 236.841 52.9194 241.941 61.0194C245.141 66.1194 247.941 71.4194 250.541 76.8194C252.041 80.0194 252.841 83.6194 253.741 87.1194C255.141 92.8194 256.141 98.5194 256.641 104.319C257.141 110.919 257.241 117.419 255.941 124.019C255.641 125.419 255.541 126.819 255.641 128.319C255.941 137.919 255.141 147.419 253.241 156.919C251.241 166.419 248.241 175.619 244.241 184.419C240.041 193.519 234.941 201.919 228.641 209.719C222.641 217.319 215.841 224.019 208.241 230.119C202.141 235.019 195.741 239.519 188.941 243.419C188.641 243.619 188.341 243.819 188.041 243.919C182.641 245.419 177.741 248.219 172.441 250.019C164.541 252.719 156.441 254.719 148.241 255.919C139.941 257.119 131.541 257.219 123.241 256.919C114.141 256.619 105.141 254.819 96.3408 252.319C86.2408 249.519 76.8408 245.219 67.7408 240.219C63.4408 237.919 59.6408 234.719 55.7408 231.919C52.3408 229.519 49.3408 226.619 46.1408 223.919C45.6408 223.519 45.1408 223.119 44.4408 222.919C47.2408 225.519 50.0408 228.219 52.8408 230.819C52.7408 230.919 52.6408 231.019 52.5408 231.219C46.3408 227.319 42.1408 221.519 37.1408 216.219C37.6408 216.019 37.7408 216.319 37.8408 216.419C38.0408 216.519 38.1408 216.719 38.4408 216.719C34.5408 211.919 30.9408 207.319 27.3408 202.619Z"
		fill="url(#paint0_linear_178_1000)" />
	<path
		d="M156.441 3.3196C147.241 2.7196 138.041 1.41959 128.841 2.11959C119.641 2.81959 110.441 3.51963 101.041 4.71963C101.541 3.71963 102.241 3.5196 102.841 3.3196C108.041 1.7196 113.441 1.01962 118.841 0.519615C123.141 0.219615 127.541 -0.0803848 131.841 0.0196152C139.541 0.219615 147.241 0.819615 154.841 2.51962C155.441 2.61962 155.941 2.81964 156.541 2.91964C156.441 3.11964 156.441 3.2196 156.441 3.3196Z"
		fill="url(#paint1_linear_178_1000)" />
	<path
		d="M27.3402 210.319C22.5402 203.419 17.9402 196.419 15.7402 188.119C19.5402 195.619 24.4402 202.419 27.3402 210.319Z"
		fill="url(#paint2_linear_178_1000)" />
	<path
		d="M74.2402 13.1197C80.2402 10.3197 86.2402 8.31973 92.5402 6.71973C91.5402 8.71973 76.4402 14.0197 74.2402 13.1197Z"
		fill="url(#paint3_linear_178_1000)" />
	<path
		d="M64.441 242.32C61.441 240.62 57.141 240.82 56.041 236.22C58.941 238.12 61.841 240.02 64.641 241.92C64.641 242.02 64.541 242.22 64.441 242.32Z"
		fill="url(#paint4_linear_178_1000)" />
	<path d="M77.3398 249.92C80.3398 250.62 83.0398 252.02 85.9398 253.22C83.9398 253.82 80.0398 251.82 77.3398 249.92Z"
		fill="url(#paint5_linear_178_1000)" />
	<path
		d="M71.1406 244.219C68.6406 243.119 66.3406 241.619 64.1406 239.619C65.8406 239.919 68.2406 241.419 71.1406 244.219Z"
		fill="url(#paint6_linear_178_1000)" />
	<path
		d="M37.4412 132.619C37.3412 129.619 39.0412 127.319 41.8412 126.319C44.2412 125.519 46.6412 124.419 49.0412 123.619C51.9412 122.619 54.6412 121.519 57.5412 120.519C59.5412 119.819 61.5412 119.019 63.5412 118.219C65.4412 117.419 67.3412 116.919 69.2412 116.219C70.6412 115.719 72.1412 115.119 73.5412 114.619C75.5412 113.819 77.6412 113.119 79.6412 112.419C82.5412 111.319 85.3412 110.319 88.2412 109.219C90.7412 108.319 93.2412 107.319 95.7412 106.519C97.9412 105.819 100.141 104.819 102.341 104.019C104.841 103.119 107.341 102.219 109.841 101.219C113.641 99.7193 117.441 98.5193 121.241 97.0193C123.641 96.0193 126.241 95.3193 128.641 94.4193C130.441 93.7193 132.341 93.0193 134.241 92.3193C135.841 91.7193 137.441 91.1193 139.041 90.6193C141.341 89.7193 143.741 88.9193 146.041 88.0193C148.541 87.1193 151.041 86.2193 153.441 85.3193C155.441 84.6193 157.441 83.8193 159.341 83.0193C161.741 82.1193 164.041 81.3193 166.441 80.5193C168.941 79.6193 171.541 78.6193 174.041 77.7193C176.441 76.8193 178.741 76.0193 181.141 75.2193C183.541 74.4193 185.841 73.5193 188.241 72.8193C190.641 72.1193 192.941 71.3193 195.241 70.6193C197.141 70.0193 199.141 69.3193 201.141 68.9193C205.041 68.1193 208.441 70.7193 209.541 73.5193C210.541 76.1193 210.141 78.5193 208.941 81.0193C206.741 85.6193 204.641 90.3193 202.441 95.0193C200.541 99.2193 198.441 103.319 196.641 107.519C193.241 115.019 189.641 122.419 186.241 130.019C184.541 133.819 182.641 137.519 180.941 141.319C178.841 145.819 176.841 150.419 174.641 154.819C172.041 160.219 169.741 165.619 167.141 171.019C165.041 175.319 163.141 179.719 161.141 184.019C158.841 188.919 156.541 193.819 154.241 198.619C153.441 200.219 152.841 201.919 152.041 203.519C151.441 204.819 150.541 205.819 149.341 206.519C147.241 207.719 144.141 207.419 142.141 206.019C139.841 204.319 137.341 202.819 134.941 201.219C132.341 199.519 129.741 197.819 127.141 196.019C124.341 194.219 121.641 192.319 118.841 190.519C112.741 186.519 106.541 182.419 100.441 178.419C99.5412 177.819 98.9412 176.919 98.5412 175.919C98.0412 174.419 99.4412 171.719 101.541 171.419C102.941 171.219 104.041 171.719 105.041 172.419C107.341 173.919 109.541 175.519 111.841 177.019C115.241 179.219 118.641 181.419 121.941 183.619C126.641 186.719 131.341 189.919 136.141 193.019C138.441 194.519 140.641 196.219 143.041 197.519C143.641 197.819 144.241 198.319 144.841 198.819C145.441 199.319 145.741 199.119 145.941 198.519C146.941 196.319 147.941 194.119 148.941 191.919C150.341 188.819 151.841 185.719 153.241 182.619C155.241 178.219 157.241 173.819 159.341 169.419C161.741 164.319 164.141 159.219 166.441 154.019C169.141 148.119 171.941 142.319 174.541 136.419C176.541 132.019 178.741 127.719 180.741 123.319C184.141 115.819 187.741 108.419 191.041 100.919C192.741 97.1193 194.541 93.4193 196.341 89.7193C198.241 85.6193 200.041 81.4193 202.041 77.3193C202.141 77.1193 202.341 76.8193 202.141 76.5193C201.941 76.3193 201.541 76.3193 201.241 76.4193C199.641 76.9193 198.041 77.5193 196.441 78.0193C195.041 78.5193 193.541 78.9193 192.141 79.4193C190.241 80.0193 188.341 80.6193 186.441 81.2193C184.241 81.9193 182.141 82.6193 180.041 83.4193C177.241 84.5193 174.441 85.5193 171.541 86.5193C169.041 87.4193 166.641 88.3193 164.141 89.2193C162.141 90.0193 160.141 90.8193 158.141 91.5193C155.741 92.3193 153.441 93.2193 151.141 94.0193C148.541 94.9193 146.041 95.9193 143.441 96.8193C141.041 97.6193 138.741 98.6193 136.341 99.4193C134.441 100.019 132.641 100.819 130.841 101.519C128.741 102.319 126.641 103.019 124.541 103.719C123.141 104.219 121.741 104.819 120.341 105.319C117.841 106.219 115.241 107.119 112.741 108.119C109.441 109.419 106.141 110.519 102.841 111.819C100.041 112.919 97.1412 113.819 94.3412 114.919C90.6412 116.319 86.9412 117.619 83.3412 119.019C80.5412 120.119 77.7412 121.019 74.9412 122.119C71.2412 123.519 67.5412 124.819 63.8412 126.219C61.8412 127.019 59.7412 127.719 57.6412 128.419C55.7412 129.119 53.9412 129.819 52.0412 130.519C50.4412 131.119 48.8412 131.719 47.1412 132.319C46.8412 132.419 46.4412 132.519 46.4412 132.819C46.3412 133.219 46.7412 133.319 47.0412 133.419C52.2412 136.819 57.4412 140.319 62.6412 143.719C63.8412 144.519 65.1412 145.219 65.9412 146.519C66.8412 147.919 66.6412 149.619 65.4412 151.019C64.4412 152.219 62.6412 152.619 61.2412 151.919C59.9412 151.319 58.7412 150.319 57.4412 149.519C54.7412 147.819 52.1412 146.019 49.4412 144.219C46.1412 142.019 42.8412 139.819 39.5412 137.519C38.2412 136.319 37.3412 134.619 37.4412 132.619Z"
		fill="white" />
	<path
		d="M85.0403 187.219C85.0403 185.319 84.9403 183.519 85.0403 181.619C85.1403 179.519 85.3403 177.519 85.4403 175.419C85.5403 174.319 85.4403 173.319 85.4403 172.219C85.6403 169.519 85.9404 166.919 85.8404 164.219C85.8404 163.719 86.1403 163.419 86.4403 163.219C90.3403 160.419 94.0403 157.419 97.8403 154.519C100.24 152.719 102.54 150.819 104.94 149.019C108.84 146.019 112.74 143.019 116.54 140.119C119.24 138.019 121.84 135.919 124.44 133.919C130.04 129.719 135.54 125.419 141.04 121.119C145.24 117.819 149.44 114.619 153.64 111.419C155.04 110.319 156.44 109.219 157.84 108.119C158.64 107.519 159.54 107.519 160.14 108.319C160.84 109.119 160.64 110.019 159.74 110.719C157.54 112.419 155.34 114.219 153.04 115.919C148.94 119.019 144.94 122.119 140.84 125.319C137.64 127.719 134.54 130.219 131.44 132.719C126.34 136.619 121.24 140.419 116.24 144.419C111.44 148.219 106.64 151.819 101.84 155.519C98.0403 158.519 94.1403 161.519 90.2403 164.519C89.1403 165.319 88.7403 166.219 89.0403 167.419C89.1403 168.119 88.9403 168.819 88.9403 169.619C88.8403 171.219 88.6404 172.819 88.6404 174.419C88.7404 176.119 88.5403 177.819 88.4403 179.519C88.3403 181.219 88.2404 182.919 88.1404 184.619C88.0404 186.519 88.0403 188.419 87.9403 190.319C87.9403 191.119 87.8403 191.919 87.7403 192.719C87.6403 193.519 86.7403 194.419 86.0403 194.619C84.9403 194.819 83.8404 194.319 83.3404 193.319C82.7403 192.319 82.6404 191.219 82.3404 190.119C81.8404 188.719 81.4403 187.219 81.0403 185.819C80.6403 184.419 80.3403 183.019 79.8403 181.619C79.0403 179.419 78.4403 177.119 77.8403 174.819C77.0403 172.219 76.2403 169.619 75.5403 167.019C75.1403 165.519 74.6404 164.119 74.1404 162.619C73.7404 161.319 73.4403 160.019 73.0403 158.719C72.7403 157.819 72.5403 157.019 72.2403 156.119C71.9403 155.219 72.4403 154.319 73.2403 154.019C74.0403 153.719 74.7403 154.019 75.0403 155.019C75.5403 156.319 76.0403 157.619 76.3403 159.019C76.8403 161.019 77.5403 163.019 78.0403 164.919C78.4403 166.419 78.9403 167.919 79.4403 169.419C80.1403 171.619 80.7403 173.919 81.4403 176.119C82.0403 177.919 82.5404 179.919 83.1404 181.719C83.7404 183.619 84.0403 185.519 84.8404 187.319C84.8404 187.219 84.9403 187.219 85.0403 187.219Z"
		fill="white" />
	<defs>
		<linearGradient id="paint0_linear_178_1000" x1="0.127581" y1="129.925" x2="256.921" y2="129.925"
			gradientUnits="userSpaceOnUse">
			<stop stop-color="#002CAE" />
			<stop offset="1" stop-color="#039BE4" />
		</linearGradient>
		<linearGradient id="paint1_linear_178_1000" x1="100.947" y1="2.36802" x2="156.405" y2="2.36802"
			gradientUnits="userSpaceOnUse">
			<stop stop-color="#002CAE" />
			<stop offset="1" stop-color="#039BE4" />
		</linearGradient>
		<linearGradient id="paint2_linear_178_1000" x1="15.7281" y1="199.256" x2="27.2963" y2="199.256"
			gradientUnits="userSpaceOnUse">
			<stop stop-color="#002CAE" />
			<stop offset="1" stop-color="#039BE4" />
		</linearGradient>
		<linearGradient id="paint3_linear_178_1000" x1="74.2662" y1="9.96391" x2="92.5582" y2="9.96391"
			gradientUnits="userSpaceOnUse">
			<stop stop-color="#002CAE" />
			<stop offset="1" stop-color="#039BE4" />
		</linearGradient>
		<linearGradient id="paint4_linear_178_1000" x1="56.0376" y1="239.256" x2="64.6809" y2="239.256"
			gradientUnits="userSpaceOnUse">
			<stop stop-color="#002CAE" />
			<stop offset="1" stop-color="#039BE4" />
		</linearGradient>
		<linearGradient id="paint5_linear_178_1000" x1="77.3821" y1="251.62" x2="86.0138" y2="251.62"
			gradientUnits="userSpaceOnUse">
			<stop stop-color="#002CAE" />
			<stop offset="1" stop-color="#039BE4" />
		</linearGradient>
		<linearGradient id="paint6_linear_178_1000" x1="64.1114" y1="241.902" x2="71.0964" y2="241.902"
			gradientUnits="userSpaceOnUse">
			<stop stop-color="#002CAE" />
			<stop offset="1" stop-color="#039BE4" />
		</linearGradient>
	</defs>
</svg>